<svg version="1.1" id="svg2" xml:space="preserve" viewBox="348 836 1304 340" xmlns="http://www.w3.org/2000/svg"
     style="max-height: 500px" width="1304" height="340"><metadata id="metadata8">image/svg+xml</metadata>
  <defs id="defs6"><clipPath clipPathUnits="userSpaceOnUse" id="clipPath22"><path d="M 0,1500 H 1500 V 0 H 0 Z" id="path20"/></clipPath></defs>
  <g id="g10" transform="matrix(1.3333333,0,0,-1.3333333,0,2000)"><g id="g12" transform="translate(504.1394,703.3798)"><path d="M 0,0 H 2.04 L 14.191,-15.458 V 0 h 2.122 V -19.289 H 14.577 L 2.122,-3.471 V -19.289 H 0 Z" style="fill:#ffffff;fill-opacity:1;fill-rule:nonzero;stroke:none" id="path14"/></g>
    <g id="g16"><g id="g18" clip-path="url(#clipPath22)"><g id="g24" transform="translate(549.3722,693.6802)"><path d="m 0,0 v 0.056 c 0,4.38 -3.197,7.962 -7.605,7.962 -4.41,0 -7.551,-3.527 -7.551,-7.908 V 0.056 c 0,-4.382 3.197,-7.965 7.604,-7.965 C -3.141,-7.909 0,-4.381 0,0 m -17.415,0 v 0.056 c 0,5.318 3.995,9.975 9.863,9.975 5.871,0 9.81,-4.602 9.81,-9.921 V 0.056 c 0,-5.319 -3.995,-9.976 -9.863,-9.976 -5.87,0 -9.81,4.601 -9.81,9.92" style="fill:#ffffff;fill-opacity:1;fill-rule:nonzero;stroke:none" id="path26"/></g><g
      id="g28" transform="translate(566.9097,701.3686)"><path d="M 0,0 H -6.475 V 2.011 H 8.682 V 0 H 2.205 V -17.278 H 0 Z" style="fill:#ffffff;fill-opacity:1;fill-rule:nonzero;stroke:none" id="path30"/></g><g
      id="g32" transform="translate(601.7305,703.3798)"><path d="M 0,0 H 13.943 V -1.984 H 2.176 v -6.585 h 10.525 v -1.984 H 2.176 v -6.752 h 11.903 v -1.984 H 0 Z" style="fill:#ffffff;fill-opacity:1;fill-rule:nonzero;stroke:none" id="path34"/></g><g
      id="g36" transform="translate(625.4393,703.3798)"><path d="M 0,0 H 2.426 L 9.286,-16.615 16.176,0 h 2.343 l -8.295,-19.427 h -1.93 z" style="fill:#ffffff;fill-opacity:1;fill-rule:nonzero;stroke:none" id="path38"/></g><g
      id="g40" transform="translate(654.6619,703.3798)"><path d="M 0,0 H 13.943 V -1.984 H 2.176 v -6.585 h 10.525 v -1.984 H 2.176 v -6.752 h 11.903 v -1.984 H 0 Z" style="fill:#ffffff;fill-opacity:1;fill-rule:nonzero;stroke:none" id="path42"/></g><g
      id="g44" transform="translate(688.1249,693.5431)"><path d="m 0,0 c 2.894,0 4.961,1.487 4.961,3.968 v 0.054 c 0,2.37 -1.82,3.804 -4.934,3.804 h -5.951 l 0,-7.826 z m -8.102,9.837 h 8.294 c 2.37,0 4.271,-0.718 5.484,-1.929 C 6.612,6.97 7.163,5.62 7.163,4.106 V 4.05 c 0,-3.196 -2.202,-5.07 -5.235,-5.621 l 5.924,-7.881 h -2.67 l -5.595,7.495 h -5.511 v -7.495 h -2.178 z" style="fill:#ffffff;fill-opacity:1;fill-rule:nonzero;stroke:none" id="path46"/></g><g
      id="g48" transform="translate(712.1927,691.7238)"><path d="m 0,0 -8.019,11.656 h 2.645 L 1.13,2.012 7.688,11.656 h 2.534 L 2.205,0.028 v -7.661 l -2.205,0 z" style="fill:#ffffff;fill-opacity:1;fill-rule:nonzero;stroke:none" id="path50"/></g><g
      id="g52" transform="translate(747.6957,693.6802)"><path d="m 0,0 v 0.056 c 0,4.38 -3.197,7.962 -7.605,7.962 -4.41,0 -7.551,-3.527 -7.551,-7.908 V 0.056 c 0,-4.382 3.197,-7.965 7.604,-7.965 C -3.141,-7.909 0,-4.381 0,0 m -17.415,0 v 0.056 c 0,5.318 3.995,9.975 9.863,9.975 5.871,0 9.81,-4.602 9.81,-9.921 V 0.056 c 0,-5.319 -3.995,-9.976 -9.863,-9.976 -5.87,0 -9.81,4.601 -9.81,9.92" style="fill:#ffffff;fill-opacity:1;fill-rule:nonzero;stroke:none" id="path54"/></g><g
      id="g56" transform="translate(761.4586,703.3798)"><path d="M 0,0 H 2.04 L 14.191,-15.458 V 0 h 2.122 V -19.289 H 14.577 L 2.122,-3.471 V -19.289 H 0 Z" style="fill:#ffffff;fill-opacity:1;fill-rule:nonzero;stroke:none" id="path58"/></g><g
      id="g60" transform="translate(790.1303,703.3798)"><path d="M 0,0 H 13.943 V -1.984 H 2.176 v -6.585 h 10.525 v -1.984 H 2.176 v -6.752 h 11.903 v -1.984 H 0 Z" style="fill:#ffffff;fill-opacity:1;fill-rule:nonzero;stroke:none" id="path62"/></g><g
      id="g64" transform="translate(816.7309,703.4622)"><path d="M 0,0 2.205,1.02 4.796,-2.976 H 3.141 Z" style="fill:#ffffff;fill-opacity:1;fill-rule:nonzero;stroke:none" id="path66"/></g><g
      id="g68" transform="translate(834.8994,686.9012)"><path d="m 0,0 1.351,1.599 c 2.011,-1.819 3.94,-2.728 6.612,-2.728 2.591,0 4.3,1.378 4.3,3.278 v 0.056 c 0,1.792 -0.963,2.81 -5.015,3.664 -4.436,0.965 -6.477,2.398 -6.477,5.568 v 0.053 c 0,3.032 2.674,5.264 6.339,5.264 2.812,0 4.822,-0.799 6.778,-2.369 L 12.622,12.703 C 10.831,14.164 9.039,14.798 7.054,14.798 4.548,14.798 2.95,13.42 2.95,11.684 V 11.629 C 2.95,9.81 3.942,8.791 8.184,7.881 12.483,6.944 14.467,5.374 14.467,2.426 V 2.37 c 0,-3.306 -2.756,-5.455 -6.586,-5.455 C 4.822,-3.085 2.314,-2.066 0,0" style="fill:#ffffff;fill-opacity:1;fill-rule:nonzero;stroke:none" id="path70"/></g><g
      id="g72" transform="translate(884.4909,686.0474)"><path d="m 0,0 c 2.921,0 4.74,1.295 4.74,3.444 v 0.055 c 0,2.095 -1.763,3.307 -5.126,3.307 H -6.477 V 0 Z m -0.771,8.736 c 2.617,0 4.436,1.185 4.436,3.444 v 0.055 c 0,1.901 -1.516,3.141 -4.272,3.141 h -5.87 v -6.64 z m -7.855,8.597 h 8.211 c 2.206,0 3.942,-0.634 5.043,-1.709 0.801,-0.826 1.24,-1.846 1.24,-3.086 V 12.483 C 5.868,9.975 4.325,8.68 2.81,8.018 5.097,7.33 6.942,6.007 6.942,3.362 V 3.306 C 6.942,0 4.161,-1.956 -0.056,-1.956 h -8.57 z" style="fill:#ffffff;fill-opacity:1;fill-rule:nonzero;stroke:none" id="path74"/></g><g
      id="g76" transform="translate(919.2225,693.6802)"><path d="m 0,0 v 0.056 c 0,4.38 -3.197,7.962 -7.605,7.962 -4.41,0 -7.551,-3.527 -7.551,-7.908 V 0.056 c 0,-4.382 3.197,-7.965 7.604,-7.965 C -3.141,-7.909 0,-4.381 0,0 m -17.415,0 v 0.056 c 0,5.318 3.995,9.975 9.863,9.975 5.871,0 9.81,-4.602 9.81,-9.921 V 0.056 c 0,-5.319 -3.995,-9.976 -9.863,-9.976 -5.87,0 -9.81,4.601 -9.81,9.92" style="fill:#ffffff;fill-opacity:1;fill-rule:nonzero;stroke:none" id="path78"/></g><g
      id="g80" transform="translate(944.365,691.1452)"><path d="M 0,0 -4.381,9.838 -8.789,0 Z m -5.374,12.373 h 2.041 L 5.457,-7.054 H 3.114 L 0.856,-1.956 H -9.643 l -2.287,-5.098 h -2.232 z" style="fill:#ffffff;fill-opacity:1;fill-rule:nonzero;stroke:none" id="path82"/></g><g
      id="g84" transform="translate(963.1443,701.3686)"><path d="M 0,0 H -6.477 V 2.011 H 8.68 V 0 H 2.205 V -17.278 H 0 Z" style="fill:#ffffff;fill-opacity:1;fill-rule:nonzero;stroke:none" id="path86"/></g><g
      id="g88" transform="translate(997.1089,693.6802)"><path d="m 0,0 v 0.056 c 0,5.291 3.886,9.975 9.672,9.975 3.252,0 5.264,-0.938 7.192,-2.563 L 15.459,5.814 C 13.97,7.11 12.318,8.018 9.589,8.018 5.32,8.018 2.261,4.409 2.261,0.11 V 0.056 c 0,-4.602 2.948,-8.019 7.632,-8.019 2.204,0 4.244,0.854 5.566,1.929 v 4.794 h -5.87 v 1.956 h 7.964 V -6.971 C 15.763,-8.569 13.063,-9.92 9.81,-9.92 3.748,-9.92 0,-5.511 0,0" style="fill:#ffffff;fill-opacity:1;fill-rule:nonzero;stroke:none" id="path90"/></g><g
      id="g92" transform="translate(1026.1665,692.1652)"><path d="M 0,0 V 11.215 H 2.176 V 0.137 c 0,-4.161 2.205,-6.503 5.897,-6.503 3.556,0 5.814,2.149 5.814,6.366 v 11.215 h 2.177 V 0.165 c 0,-5.622 -3.225,-8.542 -8.047,-8.542 C 3.25,-8.377 0,-5.457 0,0" style="fill:#ffffff;fill-opacity:1;fill-rule:nonzero;stroke:none" id="path94"/></g><g
      id="g96" transform="translate(1060.3206,691.7238)"><path d="m 0,0 -8.019,11.656 h 2.644 l 6.503,-9.644 6.56,9.644 h 2.535 L 2.203,0.028 v -7.661 l -2.203,0 z" style="fill:#ffffff;fill-opacity:1;fill-rule:nonzero;stroke:none" id="path98"/></g><path
      d="m 1076.726,686.984 h 2.535 v -2.893 h -2.535 z"
      style="fill:#ffffff;fill-opacity:1;fill-rule:nonzero;stroke:none" id="path100" /><g id="g102"
                                                                                          transform="translate(425.6102,816.2402)"><path d="m 0,0 v -13.859 h -8.413 l -1.199,-1.318 -18.555,-20.543 h -86.468 V 0 Z" style="fill:#f6aa1e;fill-opacity:1;fill-rule:nonzero;stroke:none" id="path104"/></g><g
      id="g106" transform="translate(394.4959,738.6445)"><path d="M 0,0 H 31.114 V -54.885 H -83.521 v 71.311 h 63.488 l -19.324,-21.402 -1.03,-1.149 v -6.435 h 29.046 l 1.189,1.319 z" style="fill:#f47425;fill-opacity:1;fill-rule:nonzero;stroke:none" id="path108"/></g><g
      id="g110" transform="translate(413.7028,765.8777)"><path d="M 0,0 -9.83,-10.885 H 34.332 L 24.58,0.077 12.229,13.961 H 11.828 C 7.818,8.909 3.875,4.253 0,0 M 56.489,-35.794 45.32,-23.239 h -66.307 l -11.339,-12.555 h -23.272 v 0.902 L 5.266,32.504 H 18.22 L 79.403,-35.24 v -0.554 z" style="fill:#ffffff;fill-opacity:1;fill-rule:nonzero;stroke:none" id="path112"/></g><g
      id="g114" transform="translate(523.2227,782.814)"><path d="m 0,0 v -37.162 h 43.691 c 15.733,0 26.078,1.238 31.034,3.716 5.559,2.812 8.337,7.699 8.337,14.663 0,6.63 -2.846,11.45 -8.538,14.463 C 68.966,-1.441 57.35,0 39.672,0 Z m -19.083,-52.73 v 68.298 h 59.459 c 23.636,0 39.806,-2.78 48.512,-8.337 8.971,-5.825 13.458,-14.497 13.458,-26.014 0,-11.986 -4.454,-20.789 -13.358,-26.415 -4.487,-2.745 -10.129,-4.687 -16.924,-5.825 -6.797,-1.139 -16.019,-1.707 -27.671,-1.707 z" style="fill:#ffffff;fill-opacity:1;fill-rule:nonzero;stroke:none" id="path116"/></g><g
      id="g118" transform="translate(747.7022,730.0837)"><path d="M 0,0 V 44.293 L -0.295,44.397 -44.092,5.333 h -0.605 l -43.741,39.015 h -0.35 V 0 h -19.083 v 68.299 h 15.969 l 47.407,-42.286 h 0.202 L 3.113,68.299 h 15.97 L 19.083,0 Z" style="fill:#ffffff;fill-opacity:1;fill-rule:nonzero;stroke:none" id="path120"/></g><path
      d="m 804.449,730.084 h -19.083 v 68.299 h 19.083 z"
      style="fill:#ffffff;fill-opacity:1;fill-rule:nonzero;stroke:none" id="path122" /><g id="g124"
                                                                                          transform="translate(842.1129,782.814)"><path d="m 0,0 v -17.778 h 58.154 c 6.361,0 10.696,0.703 13.006,2.109 2.31,1.407 3.465,3.65 3.465,6.729 0,3.014 -1.205,5.257 -3.616,6.73 C 68.599,-0.737 64.145,0 57.651,0 Z m 93.909,-8.94 c 0,-6.427 -2.093,-11.499 -6.277,-15.215 -4.186,-3.717 -10.864,-6.077 -20.037,-7.082 v -0.301 c 2.878,-1.808 5.356,-3.482 7.432,-5.021 L 95.918,-52.027 V -52.73 H 69.904 L 41.681,-31.839 H 0 V -52.73 H -19.083 V 15.568 H 57.55 c 7.032,0 12.958,-0.569 17.779,-1.708 4.821,-1.139 8.57,-2.829 11.248,-5.071 2.678,-2.245 4.571,-4.788 5.676,-7.634 1.104,-2.847 1.656,-6.212 1.656,-10.095" style="fill:#ffffff;fill-opacity:1;fill-rule:nonzero;stroke:none" id="path126"/></g><g
      id="g128" transform="translate(999.8571,765.8777)"><path d="M 0,0 -9.83,-10.885 H 34.332 L 24.58,0.077 12.229,13.961 H 11.828 C 7.818,8.909 3.875,4.253 0,0 m 56.489,-35.794 -11.17,12.555 h -66.306 l -11.339,-12.555 h -23.272 v 0.902 L 5.266,32.504 H 18.22 L 79.403,-35.24 v -0.554 z" style="fill:#ffffff;fill-opacity:1;fill-rule:nonzero;stroke:none" id="path130"/></g><g
      id="g132" transform="translate(1109.3779,798.3819)"><path d="m 0,0 v -52.73 h 79.647 v -15.569 h -98.73 V 0 Z" style="fill:#ffffff;fill-opacity:1;fill-rule:nonzero;stroke:none" id="path134"/></g></g></g></g></svg>
